<mxfile host="65bd71144e">
    <diagram id="hc8DKDMMC76_vFrEyQEG" name="Seite-1">
        <mxGraphModel dx="820" dy="478" grid="1" gridSize="10" guides="1" tooltips="1" connect="1" arrows="1" fold="1" page="1" pageScale="1" pageWidth="1169" pageHeight="827" math="0" shadow="0">
            <root>
                <mxCell id="0"/>
                <mxCell id="1" parent="0"/>
                <mxCell id="DsoOS7AK9UVC-tHMDe8d-8" value="" style="rounded=0;whiteSpace=wrap;html=1;fillColor=none;dashed=1;" parent="1" vertex="1">
                    <mxGeometry x="300" y="304" width="570" height="220" as="geometry"/>
                </mxCell>
                <mxCell id="DsoOS7AK9UVC-tHMDe8d-1" value="MUSIC" style="ellipse;whiteSpace=wrap;html=1;fillColor=#1ba1e2;strokeColor=#006EAF;fontColor=#ffffff;" parent="1" vertex="1">
                    <mxGeometry x="430" y="314" width="120" height="80" as="geometry"/>
                </mxCell>
                <mxCell id="DsoOS7AK9UVC-tHMDe8d-2" value="VERSION" style="ellipse;whiteSpace=wrap;html=1;" parent="1" vertex="1">
                    <mxGeometry x="620" y="314" width="120" height="80" as="geometry"/>
                </mxCell>
                <mxCell id="DsoOS7AK9UVC-tHMDe8d-3" value="has" style="endArrow=none;html=1;rounded=0;" parent="1" source="DsoOS7AK9UVC-tHMDe8d-1" target="DsoOS7AK9UVC-tHMDe8d-2" edge="1">
                    <mxGeometry width="50" height="50" relative="1" as="geometry">
                        <mxPoint x="550" y="494" as="sourcePoint"/>
                        <mxPoint x="600" y="444" as="targetPoint"/>
                    </mxGeometry>
                </mxCell>
                <mxCell id="DsoOS7AK9UVC-tHMDe8d-4" value="PART" style="ellipse;whiteSpace=wrap;html=1;" parent="1" vertex="1">
                    <mxGeometry x="740" y="424" width="120" height="80" as="geometry"/>
                </mxCell>
                <mxCell id="DsoOS7AK9UVC-tHMDe8d-5" value="has" style="endArrow=none;html=1;rounded=0;" parent="1" source="DsoOS7AK9UVC-tHMDe8d-2" target="DsoOS7AK9UVC-tHMDe8d-4" edge="1">
                    <mxGeometry width="50" height="50" relative="1" as="geometry">
                        <mxPoint x="518" y="460" as="sourcePoint"/>
                        <mxPoint x="622" y="408" as="targetPoint"/>
                    </mxGeometry>
                </mxCell>
                <mxCell id="DsoOS7AK9UVC-tHMDe8d-6" value="SINGER" style="ellipse;whiteSpace=wrap;html=1;" parent="1" vertex="1">
                    <mxGeometry x="310" y="424" width="120" height="80" as="geometry"/>
                </mxCell>
                <mxCell id="DsoOS7AK9UVC-tHMDe8d-7" value="has" style="endArrow=none;html=1;rounded=0;" parent="1" source="DsoOS7AK9UVC-tHMDe8d-6" target="DsoOS7AK9UVC-tHMDe8d-1" edge="1">
                    <mxGeometry width="50" height="50" relative="1" as="geometry">
                        <mxPoint x="569.6296424361169" y="418.0262035363644" as="sourcePoint"/>
                        <mxPoint x="654.3348949674114" y="369.9460824048799" as="targetPoint"/>
                    </mxGeometry>
                </mxCell>
            </root>
        </mxGraphModel>
    </diagram>
</mxfile>